<mxfile host="app.diagrams.net" modified="2024-02-14T01:45:02.234Z" agent="Mozilla/5.0 (Macintosh; Intel Mac OS X 10_15_7) AppleWebKit/537.36 (KHTML, like Gecko) Chrome/121.0.0.0 Safari/537.36" etag="KZ059lksmmhEBNHObZN3" version="23.1.4" type="device">
  <diagram name="Page-1" id="2YBvvXClWsGukQMizWep">
    <mxGraphModel dx="938" dy="448" grid="1" gridSize="10" guides="1" tooltips="1" connect="1" arrows="1" fold="1" page="1" pageScale="1" pageWidth="850" pageHeight="1100" math="0" shadow="0">
      <root>
        <mxCell id="0" />
        <mxCell id="1" parent="0" />
        <mxCell id="AvIr6sLmiZHdmu-FLDyb-75" style="edgeStyle=orthogonalEdgeStyle;rounded=0;orthogonalLoop=1;jettySize=auto;html=1;exitX=0.25;exitY=1;exitDx=0;exitDy=0;entryX=0.25;entryY=0;entryDx=0;entryDy=0;" edge="1" parent="1" source="AvIr6sLmiZHdmu-FLDyb-5" target="AvIr6sLmiZHdmu-FLDyb-6">
          <mxGeometry relative="1" as="geometry" />
        </mxCell>
        <mxCell id="AvIr6sLmiZHdmu-FLDyb-5" value="Landing Page" style="rounded=0;whiteSpace=wrap;html=1;" vertex="1" parent="1">
          <mxGeometry x="237.5" y="120" width="80" height="40" as="geometry" />
        </mxCell>
        <mxCell id="AvIr6sLmiZHdmu-FLDyb-71" style="edgeStyle=orthogonalEdgeStyle;rounded=0;orthogonalLoop=1;jettySize=auto;html=1;exitX=0;exitY=0.5;exitDx=0;exitDy=0;entryX=0.5;entryY=1;entryDx=0;entryDy=0;" edge="1" parent="1" source="AvIr6sLmiZHdmu-FLDyb-6" target="AvIr6sLmiZHdmu-FLDyb-32">
          <mxGeometry relative="1" as="geometry" />
        </mxCell>
        <mxCell id="AvIr6sLmiZHdmu-FLDyb-85" style="edgeStyle=orthogonalEdgeStyle;rounded=0;orthogonalLoop=1;jettySize=auto;html=1;exitX=0.5;exitY=1;exitDx=0;exitDy=0;entryX=0.5;entryY=0;entryDx=0;entryDy=0;" edge="1" parent="1" source="AvIr6sLmiZHdmu-FLDyb-6" target="AvIr6sLmiZHdmu-FLDyb-14">
          <mxGeometry relative="1" as="geometry" />
        </mxCell>
        <mxCell id="AvIr6sLmiZHdmu-FLDyb-6" value="Tool (User Input tab)" style="rounded=0;whiteSpace=wrap;html=1;" vertex="1" parent="1">
          <mxGeometry x="237.5" y="280" width="80" height="40" as="geometry" />
        </mxCell>
        <mxCell id="AvIr6sLmiZHdmu-FLDyb-66" style="edgeStyle=orthogonalEdgeStyle;rounded=0;orthogonalLoop=1;jettySize=auto;html=1;exitX=0.5;exitY=1;exitDx=0;exitDy=0;entryX=0.5;entryY=0;entryDx=0;entryDy=0;" edge="1" parent="1" source="AvIr6sLmiZHdmu-FLDyb-7" target="AvIr6sLmiZHdmu-FLDyb-6">
          <mxGeometry relative="1" as="geometry">
            <Array as="points">
              <mxPoint x="492.5" y="200" />
              <mxPoint x="277.5" y="200" />
            </Array>
          </mxGeometry>
        </mxCell>
        <mxCell id="AvIr6sLmiZHdmu-FLDyb-67" style="edgeStyle=orthogonalEdgeStyle;rounded=0;orthogonalLoop=1;jettySize=auto;html=1;exitX=0.5;exitY=0;exitDx=0;exitDy=0;entryX=0.5;entryY=0;entryDx=0;entryDy=0;" edge="1" parent="1" source="AvIr6sLmiZHdmu-FLDyb-7" target="AvIr6sLmiZHdmu-FLDyb-32">
          <mxGeometry relative="1" as="geometry" />
        </mxCell>
        <mxCell id="AvIr6sLmiZHdmu-FLDyb-7" value="Research Analysis tab" style="rounded=0;whiteSpace=wrap;html=1;" vertex="1" parent="1">
          <mxGeometry x="452.5" y="120" width="80" height="40" as="geometry" />
        </mxCell>
        <mxCell id="AvIr6sLmiZHdmu-FLDyb-9" value="" style="endArrow=classic;html=1;rounded=0;entryX=0;entryY=0.5;entryDx=0;entryDy=0;" edge="1" parent="1" target="AvIr6sLmiZHdmu-FLDyb-5">
          <mxGeometry relative="1" as="geometry">
            <mxPoint x="77.5" y="140" as="sourcePoint" />
            <mxPoint x="197.5" y="139.5" as="targetPoint" />
          </mxGeometry>
        </mxCell>
        <mxCell id="AvIr6sLmiZHdmu-FLDyb-10" value="Open Application&amp;nbsp;" style="edgeLabel;resizable=0;html=1;;align=center;verticalAlign=middle;" connectable="0" vertex="1" parent="AvIr6sLmiZHdmu-FLDyb-9">
          <mxGeometry relative="1" as="geometry">
            <mxPoint y="-10" as="offset" />
          </mxGeometry>
        </mxCell>
        <mxCell id="AvIr6sLmiZHdmu-FLDyb-12" value="" style="endArrow=classic;html=1;rounded=0;entryX=0;entryY=0.5;entryDx=0;entryDy=0;" edge="1" parent="1" target="AvIr6sLmiZHdmu-FLDyb-7">
          <mxGeometry relative="1" as="geometry">
            <mxPoint x="327.5" y="139.5" as="sourcePoint" />
            <mxPoint x="477.5" y="140" as="targetPoint" />
          </mxGeometry>
        </mxCell>
        <mxCell id="AvIr6sLmiZHdmu-FLDyb-13" value="Analyis Button" style="edgeLabel;resizable=0;html=1;;align=center;verticalAlign=middle;" connectable="0" vertex="1" parent="AvIr6sLmiZHdmu-FLDyb-12">
          <mxGeometry relative="1" as="geometry">
            <mxPoint x="-5" y="-10" as="offset" />
          </mxGeometry>
        </mxCell>
        <mxCell id="AvIr6sLmiZHdmu-FLDyb-57" style="rounded=0;orthogonalLoop=1;jettySize=auto;html=1;exitX=0;exitY=0.5;exitDx=0;exitDy=0;entryX=0.5;entryY=0;entryDx=0;entryDy=0;endArrow=classic;endFill=1;startArrow=none;startFill=0;" edge="1" parent="1" source="AvIr6sLmiZHdmu-FLDyb-14" target="AvIr6sLmiZHdmu-FLDyb-15">
          <mxGeometry relative="1" as="geometry" />
        </mxCell>
        <mxCell id="AvIr6sLmiZHdmu-FLDyb-63" style="edgeStyle=orthogonalEdgeStyle;rounded=0;orthogonalLoop=1;jettySize=auto;html=1;exitX=1;exitY=0.25;exitDx=0;exitDy=0;entryX=0.5;entryY=1;entryDx=0;entryDy=0;" edge="1" parent="1" source="AvIr6sLmiZHdmu-FLDyb-14" target="AvIr6sLmiZHdmu-FLDyb-62">
          <mxGeometry relative="1" as="geometry" />
        </mxCell>
        <mxCell id="AvIr6sLmiZHdmu-FLDyb-14" value="Controller" style="rounded=0;whiteSpace=wrap;html=1;" vertex="1" parent="1">
          <mxGeometry x="305" y="390" width="80" height="40" as="geometry" />
        </mxCell>
        <mxCell id="AvIr6sLmiZHdmu-FLDyb-15" value="Calorie Estimator" style="rounded=0;whiteSpace=wrap;html=1;" vertex="1" parent="1">
          <mxGeometry x="45" y="550" width="80" height="40" as="geometry" />
        </mxCell>
        <mxCell id="AvIr6sLmiZHdmu-FLDyb-16" value="Risk Predictor" style="rounded=0;whiteSpace=wrap;html=1;" vertex="1" parent="1">
          <mxGeometry x="235" y="550" width="80" height="40" as="geometry" />
        </mxCell>
        <mxCell id="AvIr6sLmiZHdmu-FLDyb-17" value="Activity Recommendor" style="rounded=0;whiteSpace=wrap;html=1;" vertex="1" parent="1">
          <mxGeometry x="435" y="550" width="100" height="40" as="geometry" />
        </mxCell>
        <mxCell id="AvIr6sLmiZHdmu-FLDyb-18" value="Diet Recommendor" style="rounded=0;whiteSpace=wrap;html=1;" vertex="1" parent="1">
          <mxGeometry x="655" y="550" width="100" height="40" as="geometry" />
        </mxCell>
        <mxCell id="AvIr6sLmiZHdmu-FLDyb-19" value="Food Portion Recommendor" style="rounded=0;whiteSpace=wrap;html=1;" vertex="1" parent="1">
          <mxGeometry x="595" y="670" width="90" height="50" as="geometry" />
        </mxCell>
        <mxCell id="AvIr6sLmiZHdmu-FLDyb-20" value="Food Choices Recommendor" style="rounded=0;whiteSpace=wrap;html=1;" vertex="1" parent="1">
          <mxGeometry x="735" y="670" width="90" height="50" as="geometry" />
        </mxCell>
        <mxCell id="AvIr6sLmiZHdmu-FLDyb-22" value="ML Model" style="rounded=0;whiteSpace=wrap;html=1;" vertex="1" parent="1">
          <mxGeometry x="235" y="670" width="80" height="40" as="geometry" />
        </mxCell>
        <mxCell id="AvIr6sLmiZHdmu-FLDyb-23" value="Data processor" style="rounded=0;whiteSpace=wrap;html=1;" vertex="1" parent="1">
          <mxGeometry x="135" y="790" width="80" height="40" as="geometry" />
        </mxCell>
        <mxCell id="AvIr6sLmiZHdmu-FLDyb-24" value="Master Data Generator" style="rounded=0;whiteSpace=wrap;html=1;" vertex="1" parent="1">
          <mxGeometry x="460" y="790" width="80" height="40" as="geometry" />
        </mxCell>
        <mxCell id="AvIr6sLmiZHdmu-FLDyb-32" value="" style="shape=actor;whiteSpace=wrap;html=1;" vertex="1" parent="1">
          <mxGeometry x="37.5" y="120" width="40" height="60" as="geometry" />
        </mxCell>
        <mxCell id="AvIr6sLmiZHdmu-FLDyb-44" style="edgeStyle=orthogonalEdgeStyle;rounded=0;orthogonalLoop=1;jettySize=auto;html=1;exitX=0.936;exitY=0.6;exitDx=0;exitDy=0;entryX=0;entryY=0.5;entryDx=0;entryDy=0;exitPerimeter=0;" edge="1" parent="1" source="AvIr6sLmiZHdmu-FLDyb-37" target="AvIr6sLmiZHdmu-FLDyb-23">
          <mxGeometry relative="1" as="geometry" />
        </mxCell>
        <mxCell id="AvIr6sLmiZHdmu-FLDyb-37" value="" style="shape=datastore;whiteSpace=wrap;html=1;" vertex="1" parent="1">
          <mxGeometry x="45" y="780" width="40" height="50" as="geometry" />
        </mxCell>
        <mxCell id="AvIr6sLmiZHdmu-FLDyb-38" value="" style="shape=datastore;whiteSpace=wrap;html=1;" vertex="1" parent="1">
          <mxGeometry x="265" y="780" width="40" height="50" as="geometry" />
        </mxCell>
        <mxCell id="AvIr6sLmiZHdmu-FLDyb-39" value="" style="shape=note;whiteSpace=wrap;html=1;backgroundOutline=1;darkOpacity=0.05;size=10;" vertex="1" parent="1">
          <mxGeometry x="385" y="790" width="35" height="40" as="geometry" />
        </mxCell>
        <mxCell id="AvIr6sLmiZHdmu-FLDyb-40" value="" style="shape=datastore;whiteSpace=wrap;html=1;" vertex="1" parent="1">
          <mxGeometry x="480" y="665" width="40" height="50" as="geometry" />
        </mxCell>
        <mxCell id="AvIr6sLmiZHdmu-FLDyb-41" value="&lt;span style=&quot;color: rgb(0, 0, 0); font-family: Helvetica; font-size: 12px; font-style: normal; font-variant-ligatures: normal; font-variant-caps: normal; font-weight: 400; letter-spacing: normal; orphans: 2; text-indent: 0px; text-transform: none; widows: 2; word-spacing: 0px; -webkit-text-stroke-width: 0px; background-color: rgb(251, 251, 251); text-decoration-thickness: initial; text-decoration-style: initial; text-decoration-color: initial; float: none; display: inline !important;&quot;&gt;Raw &lt;br&gt;NHANES &lt;br&gt;Data&lt;/span&gt;" style="text;whiteSpace=wrap;html=1;align=center;" vertex="1" parent="1">
          <mxGeometry x="20" y="830" width="90" height="40" as="geometry" />
        </mxCell>
        <mxCell id="AvIr6sLmiZHdmu-FLDyb-43" value="Cleaned data for model&amp;nbsp;" style="text;whiteSpace=wrap;html=1;align=center;" vertex="1" parent="1">
          <mxGeometry x="240" y="830" width="90" height="40" as="geometry" />
        </mxCell>
        <mxCell id="AvIr6sLmiZHdmu-FLDyb-45" style="edgeStyle=orthogonalEdgeStyle;rounded=0;orthogonalLoop=1;jettySize=auto;html=1;exitX=1;exitY=0.5;exitDx=0;exitDy=0;entryX=0.007;entryY=0.589;entryDx=0;entryDy=0;entryPerimeter=0;" edge="1" parent="1" source="AvIr6sLmiZHdmu-FLDyb-23" target="AvIr6sLmiZHdmu-FLDyb-38">
          <mxGeometry relative="1" as="geometry">
            <mxPoint x="92" y="820" as="sourcePoint" />
            <mxPoint x="145" y="820" as="targetPoint" />
          </mxGeometry>
        </mxCell>
        <mxCell id="AvIr6sLmiZHdmu-FLDyb-46" style="edgeStyle=orthogonalEdgeStyle;rounded=0;orthogonalLoop=1;jettySize=auto;html=1;exitX=0.5;exitY=0;exitDx=0;exitDy=0;entryX=0.5;entryY=1;entryDx=0;entryDy=0;" edge="1" parent="1" source="AvIr6sLmiZHdmu-FLDyb-38" target="AvIr6sLmiZHdmu-FLDyb-22">
          <mxGeometry relative="1" as="geometry">
            <mxPoint x="102" y="830" as="sourcePoint" />
            <mxPoint x="155" y="830" as="targetPoint" />
          </mxGeometry>
        </mxCell>
        <mxCell id="AvIr6sLmiZHdmu-FLDyb-47" style="edgeStyle=orthogonalEdgeStyle;rounded=0;orthogonalLoop=1;jettySize=auto;html=1;exitX=0.5;exitY=0;exitDx=0;exitDy=0;entryX=0.5;entryY=1;entryDx=0;entryDy=0;" edge="1" parent="1" source="AvIr6sLmiZHdmu-FLDyb-22" target="AvIr6sLmiZHdmu-FLDyb-16">
          <mxGeometry relative="1" as="geometry">
            <mxPoint x="112" y="840" as="sourcePoint" />
            <mxPoint x="165" y="840" as="targetPoint" />
          </mxGeometry>
        </mxCell>
        <mxCell id="AvIr6sLmiZHdmu-FLDyb-48" style="edgeStyle=orthogonalEdgeStyle;rounded=0;orthogonalLoop=1;jettySize=auto;html=1;exitX=0;exitY=0;exitDx=35;exitDy=25;entryX=0;entryY=0.636;entryDx=0;entryDy=0;exitPerimeter=0;entryPerimeter=0;" edge="1" parent="1" source="AvIr6sLmiZHdmu-FLDyb-39" target="AvIr6sLmiZHdmu-FLDyb-24">
          <mxGeometry relative="1" as="geometry">
            <mxPoint x="87" y="850" as="sourcePoint" />
            <mxPoint x="140" y="850" as="targetPoint" />
          </mxGeometry>
        </mxCell>
        <mxCell id="AvIr6sLmiZHdmu-FLDyb-49" style="edgeStyle=orthogonalEdgeStyle;rounded=0;orthogonalLoop=1;jettySize=auto;html=1;exitX=0.5;exitY=0;exitDx=0;exitDy=0;entryX=0.5;entryY=1;entryDx=0;entryDy=0;" edge="1" parent="1" source="AvIr6sLmiZHdmu-FLDyb-24" target="AvIr6sLmiZHdmu-FLDyb-40">
          <mxGeometry relative="1" as="geometry">
            <mxPoint x="132" y="860" as="sourcePoint" />
            <mxPoint x="185" y="860" as="targetPoint" />
          </mxGeometry>
        </mxCell>
        <mxCell id="AvIr6sLmiZHdmu-FLDyb-50" style="edgeStyle=orthogonalEdgeStyle;rounded=0;orthogonalLoop=1;jettySize=auto;html=1;exitX=0;exitY=0.5;exitDx=0;exitDy=0;entryX=0.5;entryY=1;entryDx=0;entryDy=0;" edge="1" parent="1" source="AvIr6sLmiZHdmu-FLDyb-40" target="AvIr6sLmiZHdmu-FLDyb-17">
          <mxGeometry relative="1" as="geometry">
            <mxPoint x="142" y="870" as="sourcePoint" />
            <mxPoint x="195" y="870" as="targetPoint" />
          </mxGeometry>
        </mxCell>
        <mxCell id="AvIr6sLmiZHdmu-FLDyb-51" style="edgeStyle=orthogonalEdgeStyle;rounded=0;orthogonalLoop=1;jettySize=auto;html=1;exitX=0.5;exitY=1;exitDx=0;exitDy=0;entryX=0.5;entryY=0;entryDx=0;entryDy=0;" edge="1" parent="1" source="AvIr6sLmiZHdmu-FLDyb-18" target="AvIr6sLmiZHdmu-FLDyb-19">
          <mxGeometry relative="1" as="geometry">
            <mxPoint x="152" y="880" as="sourcePoint" />
            <mxPoint x="205" y="880" as="targetPoint" />
          </mxGeometry>
        </mxCell>
        <mxCell id="AvIr6sLmiZHdmu-FLDyb-52" style="edgeStyle=orthogonalEdgeStyle;rounded=0;orthogonalLoop=1;jettySize=auto;html=1;entryX=0.556;entryY=0;entryDx=0;entryDy=0;entryPerimeter=0;" edge="1" parent="1" target="AvIr6sLmiZHdmu-FLDyb-20">
          <mxGeometry relative="1" as="geometry">
            <mxPoint x="705" y="590" as="sourcePoint" />
            <mxPoint x="650" y="680" as="targetPoint" />
            <Array as="points">
              <mxPoint x="705" y="630" />
              <mxPoint x="785" y="630" />
            </Array>
          </mxGeometry>
        </mxCell>
        <mxCell id="AvIr6sLmiZHdmu-FLDyb-53" value="" style="shape=datastore;whiteSpace=wrap;html=1;" vertex="1" parent="1">
          <mxGeometry x="695" y="750" width="40" height="50" as="geometry" />
        </mxCell>
        <mxCell id="AvIr6sLmiZHdmu-FLDyb-54" value="Webpage" style="text;whiteSpace=wrap;html=1;align=center;" vertex="1" parent="1">
          <mxGeometry x="360" y="830" width="90" height="40" as="geometry" />
        </mxCell>
        <mxCell id="AvIr6sLmiZHdmu-FLDyb-55" style="edgeStyle=orthogonalEdgeStyle;rounded=0;orthogonalLoop=1;jettySize=auto;html=1;exitX=0;exitY=0.5;exitDx=0;exitDy=0;entryX=0.5;entryY=1;entryDx=0;entryDy=0;" edge="1" parent="1" source="AvIr6sLmiZHdmu-FLDyb-53" target="AvIr6sLmiZHdmu-FLDyb-19">
          <mxGeometry relative="1" as="geometry">
            <mxPoint x="510" y="800" as="sourcePoint" />
            <mxPoint x="510" y="725" as="targetPoint" />
          </mxGeometry>
        </mxCell>
        <mxCell id="AvIr6sLmiZHdmu-FLDyb-56" style="edgeStyle=orthogonalEdgeStyle;rounded=0;orthogonalLoop=1;jettySize=auto;html=1;exitX=1;exitY=0.5;exitDx=0;exitDy=0;entryX=0.568;entryY=1.057;entryDx=0;entryDy=0;entryPerimeter=0;" edge="1" parent="1" source="AvIr6sLmiZHdmu-FLDyb-53" target="AvIr6sLmiZHdmu-FLDyb-20">
          <mxGeometry relative="1" as="geometry">
            <mxPoint x="705" y="785" as="sourcePoint" />
            <mxPoint x="650" y="730" as="targetPoint" />
          </mxGeometry>
        </mxCell>
        <mxCell id="AvIr6sLmiZHdmu-FLDyb-64" style="edgeStyle=orthogonalEdgeStyle;rounded=0;orthogonalLoop=1;jettySize=auto;html=1;exitX=0;exitY=0.5;exitDx=0;exitDy=0;entryX=1;entryY=0.5;entryDx=0;entryDy=0;" edge="1" parent="1" source="AvIr6sLmiZHdmu-FLDyb-62" target="AvIr6sLmiZHdmu-FLDyb-6">
          <mxGeometry relative="1" as="geometry" />
        </mxCell>
        <mxCell id="AvIr6sLmiZHdmu-FLDyb-65" style="edgeStyle=orthogonalEdgeStyle;rounded=0;orthogonalLoop=1;jettySize=auto;html=1;exitX=0.5;exitY=0;exitDx=0;exitDy=0;entryX=0.75;entryY=1;entryDx=0;entryDy=0;" edge="1" parent="1" source="AvIr6sLmiZHdmu-FLDyb-62" target="AvIr6sLmiZHdmu-FLDyb-7">
          <mxGeometry relative="1" as="geometry" />
        </mxCell>
        <mxCell id="AvIr6sLmiZHdmu-FLDyb-70" style="edgeStyle=orthogonalEdgeStyle;rounded=0;orthogonalLoop=1;jettySize=auto;html=1;exitX=1;exitY=0.5;exitDx=0;exitDy=0;entryX=0.5;entryY=0;entryDx=0;entryDy=0;" edge="1" parent="1" source="AvIr6sLmiZHdmu-FLDyb-62" target="AvIr6sLmiZHdmu-FLDyb-32">
          <mxGeometry relative="1" as="geometry">
            <mxPoint x="52.5" y="120" as="targetPoint" />
            <Array as="points">
              <mxPoint x="840" y="300" />
              <mxPoint x="840" y="70" />
              <mxPoint x="58" y="70" />
            </Array>
          </mxGeometry>
        </mxCell>
        <mxCell id="AvIr6sLmiZHdmu-FLDyb-62" value="Recommendation Page" style="rounded=0;whiteSpace=wrap;html=1;" vertex="1" parent="1">
          <mxGeometry x="452.5" y="280" width="120" height="40" as="geometry" />
        </mxCell>
        <mxCell id="AvIr6sLmiZHdmu-FLDyb-68" value="Click Exit button" style="edgeLabel;resizable=0;html=1;;align=center;verticalAlign=middle;" connectable="0" vertex="1" parent="1">
          <mxGeometry x="142.5" y="290" as="geometry">
            <mxPoint x="4" y="-1" as="offset" />
          </mxGeometry>
        </mxCell>
        <mxCell id="AvIr6sLmiZHdmu-FLDyb-72" value="Click Exit button" style="edgeLabel;resizable=0;html=1;;align=center;verticalAlign=middle;" connectable="0" vertex="1" parent="1">
          <mxGeometry x="332.5" y="60" as="geometry">
            <mxPoint x="4" y="-1" as="offset" />
          </mxGeometry>
        </mxCell>
        <mxCell id="AvIr6sLmiZHdmu-FLDyb-73" value="Click Exit button" style="edgeLabel;resizable=0;html=1;;align=center;verticalAlign=middle;" connectable="0" vertex="1" parent="1">
          <mxGeometry x="197.5" y="90" as="geometry">
            <mxPoint x="4" y="-1" as="offset" />
          </mxGeometry>
        </mxCell>
        <mxCell id="AvIr6sLmiZHdmu-FLDyb-74" value="Analysis button" style="edgeLabel;resizable=0;html=1;;align=center;verticalAlign=middle;rotation=90;" connectable="0" vertex="1" parent="1">
          <mxGeometry x="522.4996710543403" y="219.99999913435352" as="geometry" />
        </mxCell>
        <mxCell id="AvIr6sLmiZHdmu-FLDyb-76" value="Tool Button" style="edgeLabel;resizable=0;html=1;;align=center;verticalAlign=middle;" connectable="0" vertex="1" parent="1">
          <mxGeometry x="427.4996710543403" y="189.99999913435352" as="geometry" />
        </mxCell>
        <mxCell id="AvIr6sLmiZHdmu-FLDyb-77" value="Tool button" style="edgeLabel;resizable=0;html=1;;align=center;verticalAlign=middle;rotation=-90;" connectable="0" vertex="1" parent="1">
          <mxGeometry x="247.4996710543403" y="219.99999913435352" as="geometry" />
        </mxCell>
        <mxCell id="AvIr6sLmiZHdmu-FLDyb-78" style="rounded=0;orthogonalLoop=1;jettySize=auto;html=1;exitX=0;exitY=0.75;exitDx=0;exitDy=0;entryX=0.75;entryY=0;entryDx=0;entryDy=0;endArrow=none;endFill=0;startArrow=classic;startFill=1;" edge="1" parent="1" source="AvIr6sLmiZHdmu-FLDyb-14" target="AvIr6sLmiZHdmu-FLDyb-15">
          <mxGeometry relative="1" as="geometry">
            <mxPoint x="315" y="420" as="sourcePoint" />
            <mxPoint x="95" y="560" as="targetPoint" />
          </mxGeometry>
        </mxCell>
        <mxCell id="AvIr6sLmiZHdmu-FLDyb-79" style="rounded=0;orthogonalLoop=1;jettySize=auto;html=1;exitX=0.75;exitY=0;exitDx=0;exitDy=0;entryX=1;entryY=0.5;entryDx=0;entryDy=0;endArrow=classic;endFill=1;startArrow=none;startFill=0;" edge="1" parent="1" source="AvIr6sLmiZHdmu-FLDyb-18" target="AvIr6sLmiZHdmu-FLDyb-14">
          <mxGeometry relative="1" as="geometry">
            <mxPoint x="315" y="420" as="sourcePoint" />
            <mxPoint x="95" y="560" as="targetPoint" />
          </mxGeometry>
        </mxCell>
        <mxCell id="AvIr6sLmiZHdmu-FLDyb-80" style="rounded=0;orthogonalLoop=1;jettySize=auto;html=1;exitX=0.5;exitY=0;exitDx=0;exitDy=0;entryX=1;entryY=0.75;entryDx=0;entryDy=0;endArrow=none;endFill=0;startArrow=classic;startFill=1;" edge="1" parent="1" source="AvIr6sLmiZHdmu-FLDyb-18" target="AvIr6sLmiZHdmu-FLDyb-14">
          <mxGeometry relative="1" as="geometry">
            <mxPoint x="610" y="320" as="sourcePoint" />
            <mxPoint x="410" y="450" as="targetPoint" />
          </mxGeometry>
        </mxCell>
        <mxCell id="AvIr6sLmiZHdmu-FLDyb-81" style="rounded=0;orthogonalLoop=1;jettySize=auto;html=1;exitX=0.25;exitY=1;exitDx=0;exitDy=0;entryX=0.25;entryY=0;entryDx=0;entryDy=0;endArrow=classic;endFill=1;startArrow=none;startFill=0;" edge="1" parent="1" source="AvIr6sLmiZHdmu-FLDyb-14" target="AvIr6sLmiZHdmu-FLDyb-16">
          <mxGeometry relative="1" as="geometry">
            <mxPoint x="360" y="430" as="sourcePoint" />
            <mxPoint x="140" y="570" as="targetPoint" />
          </mxGeometry>
        </mxCell>
        <mxCell id="AvIr6sLmiZHdmu-FLDyb-82" style="rounded=0;orthogonalLoop=1;jettySize=auto;html=1;entryX=0.5;entryY=0;entryDx=0;entryDy=0;endArrow=none;endFill=0;startArrow=classic;startFill=1;" edge="1" parent="1" target="AvIr6sLmiZHdmu-FLDyb-16">
          <mxGeometry relative="1" as="geometry">
            <mxPoint x="340" y="430" as="sourcePoint" />
            <mxPoint x="160" y="570" as="targetPoint" />
          </mxGeometry>
        </mxCell>
        <mxCell id="AvIr6sLmiZHdmu-FLDyb-83" style="rounded=0;orthogonalLoop=1;jettySize=auto;html=1;exitX=0.594;exitY=1.025;exitDx=0;exitDy=0;entryX=0.342;entryY=0.025;entryDx=0;entryDy=0;endArrow=classic;endFill=1;startArrow=none;startFill=0;exitPerimeter=0;entryPerimeter=0;" edge="1" parent="1" source="AvIr6sLmiZHdmu-FLDyb-14" target="AvIr6sLmiZHdmu-FLDyb-17">
          <mxGeometry relative="1" as="geometry">
            <mxPoint x="335" y="440" as="sourcePoint" />
            <mxPoint x="115" y="580" as="targetPoint" />
          </mxGeometry>
        </mxCell>
        <mxCell id="AvIr6sLmiZHdmu-FLDyb-84" style="rounded=0;orthogonalLoop=1;jettySize=auto;html=1;exitX=0.75;exitY=1;exitDx=0;exitDy=0;entryX=0.5;entryY=0;entryDx=0;entryDy=0;endArrow=none;endFill=0;startArrow=classic;startFill=1;" edge="1" parent="1" source="AvIr6sLmiZHdmu-FLDyb-14" target="AvIr6sLmiZHdmu-FLDyb-17">
          <mxGeometry relative="1" as="geometry">
            <mxPoint x="335" y="450" as="sourcePoint" />
            <mxPoint x="135" y="580" as="targetPoint" />
          </mxGeometry>
        </mxCell>
        <mxCell id="AvIr6sLmiZHdmu-FLDyb-87" value="Call" style="edgeLabel;resizable=0;html=1;;align=center;verticalAlign=middle;rotation=-45;" connectable="0" vertex="1" parent="1">
          <mxGeometry x="174.9996710543403" y="459.9999991343535" as="geometry">
            <mxPoint x="2.1213203435596437" y="19.09188309203678" as="offset" />
          </mxGeometry>
        </mxCell>
        <mxCell id="AvIr6sLmiZHdmu-FLDyb-89" value="Call" style="edgeLabel;resizable=0;html=1;;align=center;verticalAlign=middle;rotation=-60;" connectable="0" vertex="1" parent="1">
          <mxGeometry x="174.9996710543403" y="459.9999991343535" as="geometry">
            <mxPoint x="33.23401871576774" y="102.53048327204938" as="offset" />
          </mxGeometry>
        </mxCell>
        <mxCell id="AvIr6sLmiZHdmu-FLDyb-90" value="Call" style="edgeLabel;resizable=0;html=1;;align=center;verticalAlign=middle;rotation=25;" connectable="0" vertex="1" parent="1">
          <mxGeometry x="559.9996710543403" y="479.9999991343535" as="geometry">
            <mxPoint x="2.1213203435596437" y="19.09188309203678" as="offset" />
          </mxGeometry>
        </mxCell>
        <mxCell id="AvIr6sLmiZHdmu-FLDyb-91" value="Call" style="edgeLabel;resizable=0;html=1;;align=center;verticalAlign=middle;rotation=45;" connectable="0" vertex="1" parent="1">
          <mxGeometry x="419.9996710543403" y="489.9999991343535" as="geometry">
            <mxPoint x="2.1213203435596437" y="19.09188309203678" as="offset" />
          </mxGeometry>
        </mxCell>
        <mxCell id="AvIr6sLmiZHdmu-FLDyb-92" value="Return&lt;br&gt;" style="edgeLabel;resizable=0;html=1;;align=center;verticalAlign=middle;rotation=-45;" connectable="0" vertex="1" parent="1">
          <mxGeometry x="179.9996710543403" y="489.9999991343535" as="geometry">
            <mxPoint x="2.1213203435596437" y="19.09188309203678" as="offset" />
          </mxGeometry>
        </mxCell>
        <mxCell id="AvIr6sLmiZHdmu-FLDyb-93" value="Return" style="edgeLabel;resizable=0;html=1;;align=center;verticalAlign=middle;rotation=-60;" connectable="0" vertex="1" parent="1">
          <mxGeometry x="209.9996710543403" y="479.9999991343535" as="geometry">
            <mxPoint x="33.23401871576774" y="102.53048327204938" as="offset" />
          </mxGeometry>
        </mxCell>
        <mxCell id="AvIr6sLmiZHdmu-FLDyb-94" value="Return" style="edgeLabel;resizable=0;html=1;;align=center;verticalAlign=middle;rotation=45;" connectable="0" vertex="1" parent="1">
          <mxGeometry x="459.9996710543403" y="479.9999991343535" as="geometry">
            <mxPoint x="2.1213203435596437" y="19.09188309203678" as="offset" />
          </mxGeometry>
        </mxCell>
        <mxCell id="AvIr6sLmiZHdmu-FLDyb-95" value="Return" style="edgeLabel;resizable=0;html=1;;align=center;verticalAlign=middle;rotation=25;" connectable="0" vertex="1" parent="1">
          <mxGeometry x="559.9996710543403" y="449.9999991343535" as="geometry">
            <mxPoint x="2.1213203435596437" y="19.09188309203678" as="offset" />
          </mxGeometry>
        </mxCell>
        <mxCell id="AvIr6sLmiZHdmu-FLDyb-96" value="Violin Plot Manager" style="rounded=0;whiteSpace=wrap;html=1;" vertex="1" parent="1">
          <mxGeometry x="630" y="90" width="80" height="40" as="geometry" />
        </mxCell>
        <mxCell id="AvIr6sLmiZHdmu-FLDyb-97" value="Obesity Trends" style="rounded=0;whiteSpace=wrap;html=1;" vertex="1" parent="1">
          <mxGeometry x="630" y="160" width="80" height="40" as="geometry" />
        </mxCell>
        <mxCell id="AvIr6sLmiZHdmu-FLDyb-98" value="Information" style="rounded=0;whiteSpace=wrap;html=1;" vertex="1" parent="1">
          <mxGeometry x="630" y="230" width="80" height="40" as="geometry" />
        </mxCell>
        <mxCell id="AvIr6sLmiZHdmu-FLDyb-100" style="edgeStyle=orthogonalEdgeStyle;rounded=0;orthogonalLoop=1;jettySize=auto;html=1;exitX=0;exitY=0.5;exitDx=0;exitDy=0;entryX=0.996;entryY=0.611;entryDx=0;entryDy=0;entryPerimeter=0;" edge="1" parent="1" source="AvIr6sLmiZHdmu-FLDyb-99" target="AvIr6sLmiZHdmu-FLDyb-96">
          <mxGeometry relative="1" as="geometry">
            <mxPoint x="710" y="110" as="targetPoint" />
          </mxGeometry>
        </mxCell>
        <mxCell id="AvIr6sLmiZHdmu-FLDyb-99" value="" style="shape=datastore;whiteSpace=wrap;html=1;" vertex="1" parent="1">
          <mxGeometry x="760" y="90" width="40" height="50" as="geometry" />
        </mxCell>
        <mxCell id="AvIr6sLmiZHdmu-FLDyb-101" style="edgeStyle=orthogonalEdgeStyle;rounded=0;orthogonalLoop=1;jettySize=auto;html=1;entryX=1;entryY=0.5;entryDx=0;entryDy=0;" edge="1" parent="1" target="AvIr6sLmiZHdmu-FLDyb-97">
          <mxGeometry relative="1" as="geometry">
            <mxPoint x="760" y="124" as="sourcePoint" />
            <mxPoint x="720" y="124" as="targetPoint" />
          </mxGeometry>
        </mxCell>
        <mxCell id="AvIr6sLmiZHdmu-FLDyb-102" style="edgeStyle=orthogonalEdgeStyle;rounded=0;orthogonalLoop=1;jettySize=auto;html=1;exitX=0;exitY=0.25;exitDx=0;exitDy=0;entryX=1;entryY=0.25;entryDx=0;entryDy=0;" edge="1" parent="1" source="AvIr6sLmiZHdmu-FLDyb-96" target="AvIr6sLmiZHdmu-FLDyb-7">
          <mxGeometry relative="1" as="geometry">
            <mxPoint x="780" y="135" as="sourcePoint" />
            <mxPoint x="730" y="134" as="targetPoint" />
          </mxGeometry>
        </mxCell>
        <mxCell id="AvIr6sLmiZHdmu-FLDyb-103" style="edgeStyle=orthogonalEdgeStyle;rounded=0;orthogonalLoop=1;jettySize=auto;html=1;exitX=0;exitY=0.5;exitDx=0;exitDy=0;entryX=1;entryY=0.5;entryDx=0;entryDy=0;" edge="1" parent="1" source="AvIr6sLmiZHdmu-FLDyb-97" target="AvIr6sLmiZHdmu-FLDyb-7">
          <mxGeometry relative="1" as="geometry">
            <mxPoint x="790" y="145" as="sourcePoint" />
            <mxPoint x="740" y="144" as="targetPoint" />
          </mxGeometry>
        </mxCell>
        <mxCell id="AvIr6sLmiZHdmu-FLDyb-104" style="edgeStyle=orthogonalEdgeStyle;rounded=0;orthogonalLoop=1;jettySize=auto;html=1;exitX=0;exitY=0.5;exitDx=0;exitDy=0;entryX=1;entryY=0.75;entryDx=0;entryDy=0;" edge="1" parent="1" source="AvIr6sLmiZHdmu-FLDyb-98" target="AvIr6sLmiZHdmu-FLDyb-7">
          <mxGeometry relative="1" as="geometry">
            <mxPoint x="800" y="155" as="sourcePoint" />
            <mxPoint x="750" y="154" as="targetPoint" />
            <Array as="points">
              <mxPoint x="560" y="250" />
              <mxPoint x="560" y="150" />
            </Array>
          </mxGeometry>
        </mxCell>
        <mxCell id="AvIr6sLmiZHdmu-FLDyb-105" value="Processed NHANES Data" style="text;whiteSpace=wrap;html=1;align=center;" vertex="1" parent="1">
          <mxGeometry x="750" y="140" width="70" height="30" as="geometry" />
        </mxCell>
        <mxCell id="AvIr6sLmiZHdmu-FLDyb-106" value="Activity Master file" style="text;whiteSpace=wrap;html=1;align=center;" vertex="1" parent="1">
          <mxGeometry x="390" y="690" width="90" height="40" as="geometry" />
        </mxCell>
      </root>
    </mxGraphModel>
  </diagram>
</mxfile>
